PathFileType	4	(x/y/z)	A01_T0012.trc
DataRate	CameraRate	NumFrames	NumMarkers	Units	OrigDataRate	OrigDataStartFrame	OrigNumFrames
240	240	5	47	mm	240	601	1200
Frame#	Time	R_AC			L_AC			R_ASIS			L_ASIS			R_PSIS			L_PSIS			R_GT			L_GT			R_IC			L_IC			SACRAL			R_THIGH_PROX_POST			L_THIGH_PROX_POST			R_THIGH_PROX_ANT			L_THIGH_PROX_ANT			R_THIGH_DIST_POST			L_THIGH_DIST_POST			R_THIGH_DIST_ANT			L_THIGH_DIST_ANT			R_LAT_KNEE			R_MED_KNEE			L_LAT_KNEE			L_MED_KNEE			L_PROS_PROX_ANT			L_PROS_PROX_POST			L_PROS_DIST_ANT			L_PROS_DIST_POST			R_LL_PROX_ANT			R_LL_PROX_POST			R_LL_DIST_POST			R_LL_DIST_ANT			R_LAT_ANK			R_MED_ANK			L_MED_ANK			L_LAT_ANK			L_TOE			R_TOE			L_5TH_MET			L_1ST_MET			R_1ST_MET			R_5TH_MET			R_HEEL_SUP			L_HEEL_SUP			R_HEEL_LAT			L_HEEL_LAT			L_HEEL_MED			R_HEEL_MED			
		X1	Y1	Z1	X2	Y2	Z2	X3	Y3	Z3	X4	Y4	Z4	X5	Y5	Z5	X6	Y6	Z6	X7	Y7	Z7	X8	Y8	Z8	X9	Y9	Z9	X10	Y10	Z10	X11	Y11	Z11	X12	Y12	Z12	X13	Y13	Z13	X14	Y14	Z14	X15	Y15	Z15	X16	Y16	Z16	X17	Y17	Z17	X18	Y18	Z18	X19	Y19	Z19	X20	Y20	Z20	X21	Y21	Z21	X22	Y22	Z22	X23	Y23	Z23	X24	Y24	Z24	X25	Y25	Z25	X26	Y26	Z26	X27	Y27	Z27	X28	Y28	Z28	X29	Y29	Z29	X30	Y30	Z30	X31	Y31	Z31	X32	Y32	Z32	X33	Y33	Z33	X34	Y34	Z34	X35	Y35	Z35	X36	Y36	Z36	X37	Y37	Z37	X38	Y38	Z38	X39	Y39	Z39	X40	Y40	Z40	X41	Y41	Z41	X42	Y42	Z42	X43	Y43	Z43	X44	Y44	Z44	X45	Y45	Z45	X46	Y46	Z46	X47	Y47	Z47	

601	2.5021	602.69	1570.7	547.74	654.59	1587.7	127.17	703.54	1081.6	536.37	768.27	1068.7	182.39	513.12	1078	372.7	542.12	1092.1	246.67	638.3	968.02	558.45	718.62	978.55	126.02	645.98	1178	544.71	729.63	1171.6	140.43	513.27	1055.7	302.77	603.67	840.32	536.3	717.04	838.35	133.79	670.63	863.07	552.52	782.08	834.25	164.21	614.8	751.61	532.19	728.65	762.95	142.98	679.18	771.65	549.59	788.68	760.31	169.5	643.41	560.84	510.17	692.43	551.65	384.8	725.49	582.76	159.86	738.93	554.07	315.12	750.92	491.55	163.22	697.86	504.8	151.79	730.25	438.9	163.06	677.59	444.87	152.85	582.5	385.03	533.08	519.45	404.19	500.75	523.37	320.96	498.88	574.44	310.27	520.04	522.88	110.99	491.41	560.29	115.91	391.04	599.93	148.02	202.07	572.21	153.29	135.67	794.22	75.011	151.1	766.65	71.646	470.05	680.09	55.188	78.959	711.42	57.495	206.69	690.56	57.565	410.99	641.51	45.606	539.15	440.76	70.315	421.15	475.71	111.78	166.42	443.37	46.01	456.19	480.95	82.931	134.96	490.11	79.74	197.67	455.13	44.805	394.97
602	2.5063	602.69	1570.7	547.69	654.59	1587.7	127.13	703.53	1081.6	536.34	768.28	1068.7	182.37	513.12	1078	372.66	542.13	1092.1	246.64	638.29	968.03	558.43	718.63	978.55	126	645.97	1178	544.68	729.64	1171.6	140.41	513.27	1055.7	302.74	603.67	840.31	536.27	717.04	838.35	133.77	670.62	863.07	552.51	782.08	834.25	164.2	614.8	751.6	532.16	728.65	762.95	142.97	679.17	771.65	549.58	788.68	760.31	169.49	643.42	560.84	510.16	692.47	551.64	384.81	725.48	582.76	159.85	738.91	554.07	315.11	750.91	491.55	163.21	697.85	504.8	151.78	730.24	438.89	163.05	677.58	444.87	152.84	582.51	385.03	533.08	519.46	404.19	500.75	523.38	320.96	498.88	574.45	310.27	520.04	522.88	110.99	491.41	560.29	115.91	391.04	599.93	148.02	202.06	572.21	153.29	135.67	794.22	75.012	151.1	766.65	71.643	470.05	680.09	55.187	78.957	711.42	57.495	206.69	690.56	57.565	410.99	641.51	45.606	539.16	440.76	70.318	421.15	475.71	111.77	166.41	443.38	46.013	456.19	480.95	82.926	134.96	490.11	79.735	197.67	455.13	44.807	394.97
603	2.5104	602.69	1570.7	547.65	654.59	1587.7	127.09	703.52	1081.6	536.32	768.28	1068.7	182.36	513.12	1078	372.63	542.14	1092.1	246.61	638.29	968.03	558.41	718.64	978.55	125.98	645.96	1178	544.64	729.65	1171.6	140.38	513.27	1055.7	302.7	603.66	840.31	536.23	717.04	838.36	133.75	670.6	863.06	552.51	782.08	834.25	164.18	614.79	751.59	532.13	728.65	762.95	142.96	679.16	771.64	549.57	788.68	760.31	169.48	643.43	560.83	510.16	692.5	551.63	384.82	725.46	582.76	159.84	738.88	554.07	315.11	750.9	491.55	163.21	697.84	504.8	151.77	730.23	438.89	163.04	677.57	444.87	152.83	582.52	385.03	533.08	519.47	404.19	500.75	523.39	320.96	498.88	574.46	310.26	520.04	522.88	110.99	491.41	560.29	115.91	391.04	599.92	148.02	202.06	572.21	153.28	135.66	794.21	75.014	151.1	766.66	71.64	470.06	680.09	55.186	78.956	711.42	57.495	206.68	690.56	57.565	410.99	641.51	45.606	539.16	440.77	70.321	421.15	475.7	111.77	166.41	443.38	46.017	456.19	480.95	82.92	134.96	490.11	79.73	197.66	455.13	44.809	394.97
604	2.5146	602.68	1570.7	547.61	654.59	1587.7	127.06	703.51	1081.6	536.29	768.29	1068.7	182.34	513.11	1078	372.59	542.14	1092.1	246.58	638.28	968.04	558.39	718.65	978.55	125.96	645.95	1178	544.6	729.66	1171.6	140.35	513.27	1055.7	302.67	603.66	840.3	536.19	717.04	838.36	133.74	670.59	863.05	552.5	782.08	834.24	164.17	614.79	751.58	532.1	728.64	762.95	142.94	679.15	771.63	549.56	788.67	760.31	169.47	643.44	560.83	510.16	692.54	551.63	384.82	725.45	582.76	159.83	738.86	554.07	315.1	750.89	491.55	163.2	697.83	504.8	151.76	730.22	438.89	163.03	677.56	444.87	152.82	582.53	385.02	533.09	519.48	404.19	500.75	523.4	320.96	498.88	574.47	310.26	520.04	522.89	110.99	491.41	560.3	115.91	391.04	599.92	148.01	202.05	572.2	153.28	135.66	794.21	75.015	151.09	766.66	71.637	470.06	680.09	55.185	78.954	711.42	57.496	206.68	690.56	57.566	410.99	641.51	45.606	539.16	440.77	70.324	421.15	475.7	111.76	166.4	443.38	46.02	456.19	480.95	82.914	134.95	490.1	79.725	197.65	455.13	44.811	394.97
605	2.5188	602.68	1570.7	547.57	654.59	1587.7	127.02	703.5	1081.6	536.27	768.3	1068.7	182.31	513.11	1078	372.55	542.14	1092.1	246.54	638.27	968.05	558.37	718.66	978.55	125.94	645.95	1178	544.57	729.67	1171.6	140.32	513.27	1055.7	302.63	603.65	840.3	536.15	717.04	838.36	133.72	670.57	863.04	552.49	782.08	834.24	164.15	614.78	751.57	532.06	728.64	762.95	142.92	679.14	771.62	549.55	788.67	760.31	169.46	643.45	560.82	510.16	692.58	551.62	384.83	725.44	582.76	159.81	738.84	554.07	315.09	750.88	491.55	163.18	697.82	504.8	151.75	730.21	438.89	163.02	677.55	444.86	152.81	582.54	385.02	533.09	519.49	404.19	500.75	523.41	320.96	498.88	574.48	310.26	520.05	522.89	110.99	491.41	560.3	115.91	391.04	599.92	148.01	202.04	572.2	153.27	135.66	794.21	75.016	151.09	766.66	71.634	470.06	680.09	55.183	78.953	711.41	57.497	206.68	690.56	57.566	411	641.51	45.606	539.16	440.77	70.327	421.15	475.7	111.75	166.4	443.38	46.023	456.19	480.94	82.907	134.95	490.1	79.72	197.65	455.14	44.812	394.97
